<svg width="100%" height="100%" viewBox="0 0 1440 1024" fill="none" xmlns="http://www.w3.org/2000/svg">
<g filter="url(#filter0_f_83_73)">
<path d="M1000.28 314.348C1000.28 375.701 850.082 425.438 664.799 425.438C479.515 425.438 329.313 375.701 329.313 314.348C329.313 252.994 510.458 157.944 695.742 157.944C881.025 157.944 1000.28 252.994 1000.28 314.348Z" fill="#839A76"/>
</g>
<g filter="url(#filter1_f_83_73)">
<path d="M620.829 106.054C573.6 99.4758 182.484 165.034 179.486 191.564C58.0625 191.564 44.3148 172.239 44.3148 117.747C44.3148 63.2557 729.034 35.1604 850.457 35.1604C971.881 35.1604 668.057 112.631 620.829 106.054Z" fill="#7EAEB2"/>
</g>
<g filter="url(#filter2_f_83_73)">
<path d="M1440 85.5896C1440 115.863 1385.31 140.404 1317.86 140.404C1250.4 140.404 1273.89 105.631 1273.89 75.3576C1273.89 45.0845 1235.74 36.6222 1303.2 36.6222C1370.66 36.6222 1440 55.3165 1440 85.5896Z" fill="#102D3D"/>
</g>
<g filter="url(#filter3_f_83_73)">
<path d="M1252.06 135.288C1252.06 165.561 1197.37 190.102 1129.91 190.102C1062.46 190.102 1085.94 155.329 1085.94 125.056C1085.94 94.7828 1047.8 86.3204 1115.26 86.3204C1182.72 86.3204 1252.06 105.015 1252.06 135.288Z" fill="#102D3D"/>
</g>
<g filter="url(#filter4_f_83_73)">
<path d="M1423.71 367.7C1423.71 417.348 1334.03 457.596 1223.4 457.596C1112.77 457.596 1031.23 425.388 1031.23 375.74C1031.23 326.092 1203.97 243.455 1314.6 243.455C1425.23 243.455 1423.71 318.052 1423.71 367.7Z" fill="#FFAD41"/>
</g>
<g filter="url(#filter5_f_83_73)">
<path d="M357 219.336C357 248.802 231.946 266.111 168.086 266.111C104.226 266.111 15 215.183 15 185.717C15 156.251 221.483 126.518 285.343 126.518C349.203 126.518 357 189.871 357 219.336Z" fill="#7EAEB2"/>
</g>
<g filter="url(#filter6_f_83_73)">
<path d="M1417 170.819C1417 200.285 1291.95 217.594 1228.09 217.594C1164.23 217.594 1075 166.665 1075 137.199C1075 107.734 1281.48 78 1345.34 78C1409.2 78 1417 141.353 1417 170.819Z" fill="#7EAEB2"/>
</g>
<g filter="url(#filter7_f_83_73)">
<path d="M215 102.819C215 132.285 89.9455 149.594 26.0856 149.594C-37.7742 149.594 -127 98.6652 -127 69.1994C-127 39.7336 79.4829 10 143.343 10C207.203 10 215 73.353 215 102.819Z" fill="#7EAEB2"/>
</g>
<g filter="url(#filter8_f_83_73)">
<path d="M822.772 35.8913C822.772 50.0187 711.278 61.4713 676.2 61.4713C641.122 61.4713 557.314 56.5964 557.314 42.469C557.314 28.3416 641.122 10.3113 676.2 10.3113C711.278 10.3113 822.772 21.7638 822.772 35.8913Z" fill="#F8C995"/>
</g>
<g filter="url(#filter9_f_83_73)">
<path d="M1080.09 78.281C1080.09 92.4085 968.593 103.861 933.515 103.861C898.437 103.861 814.629 98.9862 814.629 84.8588C814.629 70.7313 898.437 52.701 933.515 52.701C968.593 52.701 1080.09 64.1536 1080.09 78.281Z" fill="#F8C995"/>
</g>
<g filter="url(#filter10_f_83_73)">
<path d="M698.176 122.779C697.694 180.891 632.567 227.462 552.712 226.799C472.858 226.136 414.313 187.949 414.796 129.837C415.278 71.7251 540.769 -23.9646 620.623 -23.3015C700.478 -22.6383 698.659 64.6677 698.176 122.779Z" fill="#FFAD41"/>
</g>
<g filter="url(#filter11_f_83_73)">
<path d="M1493.18 375.779C1492.69 433.891 1427.57 480.462 1347.71 479.799C1267.86 479.136 1209.31 440.949 1209.8 382.837C1210.28 324.725 1335.77 229.035 1415.62 229.699C1495.48 230.362 1493.66 317.668 1493.18 375.779Z" fill="#FFAD41"/>
</g>
<g filter="url(#filter12_f_83_73)">
<path d="M268 410.819C268 440.285 142.946 457.594 79.0856 457.594C15.2258 457.594 -74 406.665 -74 377.199C-74 347.734 132.483 318 196.343 318C260.203 318 268 381.353 268 410.819Z" fill="#7EAEB2"/>
</g>
<g filter="url(#filter13_f_83_73)">
<path d="M403.1 684.652C403.1 623.299 553.302 573.562 738.586 573.562C923.869 573.562 1074.07 623.299 1074.07 684.652C1074.07 746.006 892.927 841.056 707.643 841.056C522.359 841.056 403.1 746.006 403.1 684.652Z" fill="#839A76"/>
</g>
<g filter="url(#filter14_f_83_73)">
<path d="M782.556 892.946C829.784 899.524 1220.9 833.966 1223.9 807.436C1345.32 807.436 1359.07 826.761 1359.07 881.253C1359.07 935.744 674.351 963.84 552.927 963.84C431.504 963.84 735.327 886.369 782.556 892.946Z" fill="#7EAEB2"/>
</g>
<g filter="url(#filter15_f_83_73)">
<path d="M-36.6149 913.41C-36.6149 883.137 18.0703 858.596 85.528 858.596C152.986 858.596 129.499 893.369 129.499 923.642C129.499 953.915 167.643 962.378 100.185 962.378C32.7275 962.378 -36.6149 943.683 -36.6149 913.41Z" fill="#102D3D"/>
</g>
<g filter="url(#filter16_f_83_73)">
<path d="M151.327 863.712C151.327 833.439 206.012 808.898 273.47 808.898C340.928 808.898 317.442 843.671 317.442 873.944C317.442 904.217 355.585 912.68 288.127 912.68C220.67 912.68 151.327 893.985 151.327 863.712Z" fill="#102D3D"/>
</g>
<g filter="url(#filter17_f_83_73)">
<path d="M-20.3288 631.3C-20.3288 581.652 69.3549 541.404 179.985 541.404C290.616 541.404 372.157 573.612 372.157 623.26C372.157 672.908 199.416 755.545 88.7854 755.545C-21.8451 755.545 -20.3288 680.948 -20.3288 631.3Z" fill="#FFAD41"/>
</g>
<g filter="url(#filter18_f_83_73)">
<path d="M1046.38 779.664C1046.38 750.198 1171.44 732.889 1235.3 732.889C1299.16 732.889 1388.38 783.817 1388.38 813.283C1388.38 842.749 1181.9 872.482 1118.04 872.482C1054.18 872.482 1046.38 809.129 1046.38 779.664Z" fill="#7EAEB2"/>
</g>
<g filter="url(#filter19_f_83_73)">
<path d="M-13.6151 828.181C-13.6151 798.715 111.439 781.406 175.299 781.406C239.159 781.406 328.385 832.335 328.385 861.801C328.385 891.266 121.902 921 58.042 921C-5.81784 921 -13.6151 857.647 -13.6151 828.181Z" fill="#7EAEB2"/>
</g>
<g filter="url(#filter20_f_83_73)">
<path d="M1188.38 896.181C1188.38 866.715 1313.44 849.406 1377.3 849.406C1441.16 849.406 1530.38 900.335 1530.38 929.801C1530.38 959.266 1323.9 989 1260.04 989C1196.18 989 1188.38 925.647 1188.38 896.181Z" fill="#7EAEB2"/>
</g>
<g filter="url(#filter21_f_83_73)">
<path d="M580.613 963.109C580.613 948.981 692.107 937.529 727.185 937.529C762.263 937.529 846.07 942.404 846.07 956.531C846.07 970.658 762.263 988.689 727.185 988.689C692.107 988.689 580.613 977.236 580.613 963.109Z" fill="#F8C995"/>
</g>
<g filter="url(#filter22_f_83_73)">
<path d="M323.299 920.719C323.299 906.592 434.792 895.139 469.87 895.139C504.948 895.139 588.756 900.014 588.756 914.141C588.756 928.269 504.948 946.299 469.87 946.299C434.792 946.299 323.299 934.846 323.299 920.719Z" fill="#F8C995"/>
</g>
<g filter="url(#filter23_f_83_73)">
<path d="M705.209 876.221C705.691 818.109 770.817 771.538 850.672 772.201C930.527 772.864 989.072 811.051 988.589 869.163C988.106 927.275 862.616 1022.96 782.761 1022.3C702.906 1021.64 704.726 934.332 705.209 876.221Z" fill="#FFAD41"/>
</g>
<g filter="url(#filter24_f_83_73)">
<path d="M-89.7914 623.221C-89.3089 565.109 -24.1825 518.538 55.6723 519.201C135.527 519.864 194.072 558.051 193.589 616.163C193.106 674.275 67.6161 769.965 -12.2387 769.301C-92.0935 768.638 -90.274 681.332 -89.7914 623.221Z" fill="#FFAD41"/>
</g>
<g filter="url(#filter25_f_83_73)">
<path d="M1135.38 588.181C1135.38 558.715 1260.44 541.406 1324.3 541.406C1388.16 541.406 1477.38 592.335 1477.38 621.801C1477.38 651.266 1270.9 681 1207.04 681C1143.18 681 1135.38 617.647 1135.38 588.181Z" fill="#7EAEB2"/>
</g>
<g filter="url(#filter26_b_83_73)">
<rect x="-3" width="1445" height="1024" fill="black" fill-opacity="0.14" style="mix-blend-mode:luminosity"/>
</g>
<defs>
<filter id="filter0_f_83_73" x="209.313" y="37.9445" width="910.971" height="507.494" filterUnits="userSpaceOnUse" color-interpolation-filters="sRGB">
<feFlood flood-opacity="0" result="BackgroundImageFix"/>
<feBlend mode="normal" in="SourceGraphic" in2="BackgroundImageFix" result="shape"/>
<feGaussianBlur stdDeviation="60" result="effect1_foregroundBlur_83_73"/>
</filter>
<filter id="filter1_f_83_73" x="-75.6852" y="-84.8396" width="1074.58" height="396.403" filterUnits="userSpaceOnUse" color-interpolation-filters="sRGB">
<feFlood flood-opacity="0" result="BackgroundImageFix"/>
<feBlend mode="normal" in="SourceGraphic" in2="BackgroundImageFix" result="shape"/>
<feGaussianBlur stdDeviation="60" result="effect1_foregroundBlur_83_73"/>
</filter>
<filter id="filter2_f_83_73" x="1143.14" y="-83.3778" width="416.858" height="343.782" filterUnits="userSpaceOnUse" color-interpolation-filters="sRGB">
<feFlood flood-opacity="0" result="BackgroundImageFix"/>
<feBlend mode="normal" in="SourceGraphic" in2="BackgroundImageFix" result="shape"/>
<feGaussianBlur stdDeviation="60" result="effect1_foregroundBlur_83_73"/>
</filter>
<filter id="filter3_f_83_73" x="955.2" y="-33.6796" width="416.858" height="343.782" filterUnits="userSpaceOnUse" color-interpolation-filters="sRGB">
<feFlood flood-opacity="0" result="BackgroundImageFix"/>
<feBlend mode="normal" in="SourceGraphic" in2="BackgroundImageFix" result="shape"/>
<feGaussianBlur stdDeviation="60" result="effect1_foregroundBlur_83_73"/>
</filter>
<filter id="filter4_f_83_73" x="911.228" y="123.455" width="632.487" height="454.141" filterUnits="userSpaceOnUse" color-interpolation-filters="sRGB">
<feFlood flood-opacity="0" result="BackgroundImageFix"/>
<feBlend mode="normal" in="SourceGraphic" in2="BackgroundImageFix" result="shape"/>
<feGaussianBlur stdDeviation="60" result="effect1_foregroundBlur_83_73"/>
</filter>
<filter id="filter5_f_83_73" x="-105" y="6.51761" width="582" height="379.594" filterUnits="userSpaceOnUse" color-interpolation-filters="sRGB">
<feFlood flood-opacity="0" result="BackgroundImageFix"/>
<feBlend mode="normal" in="SourceGraphic" in2="BackgroundImageFix" result="shape"/>
<feGaussianBlur stdDeviation="60" result="effect1_foregroundBlur_83_73"/>
</filter>
<filter id="filter6_f_83_73" x="955" y="-42" width="582" height="379.594" filterUnits="userSpaceOnUse" color-interpolation-filters="sRGB">
<feFlood flood-opacity="0" result="BackgroundImageFix"/>
<feBlend mode="normal" in="SourceGraphic" in2="BackgroundImageFix" result="shape"/>
<feGaussianBlur stdDeviation="60" result="effect1_foregroundBlur_83_73"/>
</filter>
<filter id="filter7_f_83_73" x="-247" y="-110" width="582" height="379.594" filterUnits="userSpaceOnUse" color-interpolation-filters="sRGB">
<feFlood flood-opacity="0" result="BackgroundImageFix"/>
<feBlend mode="normal" in="SourceGraphic" in2="BackgroundImageFix" result="shape"/>
<feGaussianBlur stdDeviation="60" result="effect1_foregroundBlur_83_73"/>
</filter>
<filter id="filter8_f_83_73" x="437.314" y="-109.689" width="505.457" height="291.16" filterUnits="userSpaceOnUse" color-interpolation-filters="sRGB">
<feFlood flood-opacity="0" result="BackgroundImageFix"/>
<feBlend mode="normal" in="SourceGraphic" in2="BackgroundImageFix" result="shape"/>
<feGaussianBlur stdDeviation="60" result="effect1_foregroundBlur_83_73"/>
</filter>
<filter id="filter9_f_83_73" x="694.629" y="-67.299" width="505.457" height="291.16" filterUnits="userSpaceOnUse" color-interpolation-filters="sRGB">
<feFlood flood-opacity="0" result="BackgroundImageFix"/>
<feBlend mode="normal" in="SourceGraphic" in2="BackgroundImageFix" result="shape"/>
<feGaussianBlur stdDeviation="60" result="effect1_foregroundBlur_83_73"/>
</filter>
<filter id="filter10_f_83_73" x="294.793" y="-143.305" width="523.486" height="490.111" filterUnits="userSpaceOnUse" color-interpolation-filters="sRGB">
<feFlood flood-opacity="0" result="BackgroundImageFix"/>
<feBlend mode="normal" in="SourceGraphic" in2="BackgroundImageFix" result="shape"/>
<feGaussianBlur stdDeviation="60" result="effect1_foregroundBlur_83_73"/>
</filter>
<filter id="filter11_f_83_73" x="1089.79" y="109.695" width="523.486" height="490.111" filterUnits="userSpaceOnUse" color-interpolation-filters="sRGB">
<feFlood flood-opacity="0" result="BackgroundImageFix"/>
<feBlend mode="normal" in="SourceGraphic" in2="BackgroundImageFix" result="shape"/>
<feGaussianBlur stdDeviation="60" result="effect1_foregroundBlur_83_73"/>
</filter>
<filter id="filter12_f_83_73" x="-194" y="198" width="582" height="379.594" filterUnits="userSpaceOnUse" color-interpolation-filters="sRGB">
<feFlood flood-opacity="0" result="BackgroundImageFix"/>
<feBlend mode="normal" in="SourceGraphic" in2="BackgroundImageFix" result="shape"/>
<feGaussianBlur stdDeviation="60" result="effect1_foregroundBlur_83_73"/>
</filter>
<filter id="filter13_f_83_73" x="283.1" y="453.562" width="910.971" height="507.494" filterUnits="userSpaceOnUse" color-interpolation-filters="sRGB">
<feFlood flood-opacity="0" result="BackgroundImageFix"/>
<feBlend mode="normal" in="SourceGraphic" in2="BackgroundImageFix" result="shape"/>
<feGaussianBlur stdDeviation="60" result="effect1_foregroundBlur_83_73"/>
</filter>
<filter id="filter14_f_83_73" x="404.491" y="687.436" width="1074.58" height="396.403" filterUnits="userSpaceOnUse" color-interpolation-filters="sRGB">
<feFlood flood-opacity="0" result="BackgroundImageFix"/>
<feBlend mode="normal" in="SourceGraphic" in2="BackgroundImageFix" result="shape"/>
<feGaussianBlur stdDeviation="60" result="effect1_foregroundBlur_83_73"/>
</filter>
<filter id="filter15_f_83_73" x="-156.615" y="738.596" width="416.858" height="343.782" filterUnits="userSpaceOnUse" color-interpolation-filters="sRGB">
<feFlood flood-opacity="0" result="BackgroundImageFix"/>
<feBlend mode="normal" in="SourceGraphic" in2="BackgroundImageFix" result="shape"/>
<feGaussianBlur stdDeviation="60" result="effect1_foregroundBlur_83_73"/>
</filter>
<filter id="filter16_f_83_73" x="31.3273" y="688.898" width="416.858" height="343.782" filterUnits="userSpaceOnUse" color-interpolation-filters="sRGB">
<feFlood flood-opacity="0" result="BackgroundImageFix"/>
<feBlend mode="normal" in="SourceGraphic" in2="BackgroundImageFix" result="shape"/>
<feGaussianBlur stdDeviation="60" result="effect1_foregroundBlur_83_73"/>
</filter>
<filter id="filter17_f_83_73" x="-140.33" y="421.404" width="632.487" height="454.141" filterUnits="userSpaceOnUse" color-interpolation-filters="sRGB">
<feFlood flood-opacity="0" result="BackgroundImageFix"/>
<feBlend mode="normal" in="SourceGraphic" in2="BackgroundImageFix" result="shape"/>
<feGaussianBlur stdDeviation="60" result="effect1_foregroundBlur_83_73"/>
</filter>
<filter id="filter18_f_83_73" x="926.385" y="612.889" width="582" height="379.594" filterUnits="userSpaceOnUse" color-interpolation-filters="sRGB">
<feFlood flood-opacity="0" result="BackgroundImageFix"/>
<feBlend mode="normal" in="SourceGraphic" in2="BackgroundImageFix" result="shape"/>
<feGaussianBlur stdDeviation="60" result="effect1_foregroundBlur_83_73"/>
</filter>
<filter id="filter19_f_83_73" x="-133.615" y="661.406" width="582" height="379.594" filterUnits="userSpaceOnUse" color-interpolation-filters="sRGB">
<feFlood flood-opacity="0" result="BackgroundImageFix"/>
<feBlend mode="normal" in="SourceGraphic" in2="BackgroundImageFix" result="shape"/>
<feGaussianBlur stdDeviation="60" result="effect1_foregroundBlur_83_73"/>
</filter>
<filter id="filter20_f_83_73" x="1068.38" y="729.406" width="582" height="379.594" filterUnits="userSpaceOnUse" color-interpolation-filters="sRGB">
<feFlood flood-opacity="0" result="BackgroundImageFix"/>
<feBlend mode="normal" in="SourceGraphic" in2="BackgroundImageFix" result="shape"/>
<feGaussianBlur stdDeviation="60" result="effect1_foregroundBlur_83_73"/>
</filter>
<filter id="filter21_f_83_73" x="460.613" y="817.529" width="505.457" height="291.16" filterUnits="userSpaceOnUse" color-interpolation-filters="sRGB">
<feFlood flood-opacity="0" result="BackgroundImageFix"/>
<feBlend mode="normal" in="SourceGraphic" in2="BackgroundImageFix" result="shape"/>
<feGaussianBlur stdDeviation="60" result="effect1_foregroundBlur_83_73"/>
</filter>
<filter id="filter22_f_83_73" x="203.299" y="775.139" width="505.457" height="291.16" filterUnits="userSpaceOnUse" color-interpolation-filters="sRGB">
<feFlood flood-opacity="0" result="BackgroundImageFix"/>
<feBlend mode="normal" in="SourceGraphic" in2="BackgroundImageFix" result="shape"/>
<feGaussianBlur stdDeviation="60" result="effect1_foregroundBlur_83_73"/>
</filter>
<filter id="filter23_f_83_73" x="585.106" y="652.194" width="523.486" height="490.111" filterUnits="userSpaceOnUse" color-interpolation-filters="sRGB">
<feFlood flood-opacity="0" result="BackgroundImageFix"/>
<feBlend mode="normal" in="SourceGraphic" in2="BackgroundImageFix" result="shape"/>
<feGaussianBlur stdDeviation="60" result="effect1_foregroundBlur_83_73"/>
</filter>
<filter id="filter24_f_83_73" x="-209.894" y="399.194" width="523.486" height="490.111" filterUnits="userSpaceOnUse" color-interpolation-filters="sRGB">
<feFlood flood-opacity="0" result="BackgroundImageFix"/>
<feBlend mode="normal" in="SourceGraphic" in2="BackgroundImageFix" result="shape"/>
<feGaussianBlur stdDeviation="60" result="effect1_foregroundBlur_83_73"/>
</filter>
<filter id="filter25_f_83_73" x="1015.38" y="421.406" width="582" height="379.594" filterUnits="userSpaceOnUse" color-interpolation-filters="sRGB">
<feFlood flood-opacity="0" result="BackgroundImageFix"/>
<feBlend mode="normal" in="SourceGraphic" in2="BackgroundImageFix" result="shape"/>
<feGaussianBlur stdDeviation="60" result="effect1_foregroundBlur_83_73"/>
</filter>
<filter id="filter26_b_83_73" x="-203" y="-200" width="1845" height="1424" filterUnits="userSpaceOnUse" color-interpolation-filters="sRGB">
<feFlood flood-opacity="0" result="BackgroundImageFix"/>
<feGaussianBlur in="BackgroundImageFix" stdDeviation="100"/>
<feComposite in2="SourceAlpha" operator="in" result="effect1_backgroundBlur_83_73"/>
<feBlend mode="normal" in="SourceGraphic" in2="effect1_backgroundBlur_83_73" result="shape"/>
</filter>
</defs>
</svg>
